:SAMPLES-PER-SECOND 30
:FULLY-SPECIFIED
:DEGREES
587
root  39.8899 37.2647 31.7532 177.454 -12.2852 175.57
RightUpLeg  -3.11307 5.16393 -27.2401
RightLeg  17.5129 -6.20937 -2.74253
RightFoot  -5.65516 -0.242221 3.94231
RightToes  -6.98493e-010 0 -3.6325e-017
Spine  14.9673 -0.766695 4.46272
Spine1  10.4859 1.02177 -5.042
HEad  -11.0763 -18.5706 -0.355054
LeftShoulder1  0.322982 2.34166 -21.3642
LeftArm  -16.235 4.86424 -36.64
LeftForeArm  73.7158 -79.0132 -93.3678
LeftHand  -0.04653 -0.157991 0.992922
RightShoulder  -0.189961 -4.1179 23.3341
RightArm  -13.5293 -8.34266 41.8387
RightForeArm  107.989 73.45 137.278
RightHand  -0.185863 2.16116 -3.04202
LeftUpLeg  -14.9007 15.1885 9.70647
LeftLeg  23.6376 -5.83037 -2.45834
LeftFoot  -2.92488 0.728092 -9.65744
LeftToes  7.91257e-010 -1.64976e-010 -3.02228e-011
588
root  38.8001 37.5418 31.7568 176.842 -12.6127 175.04
RightUpLeg  -2.28264 6.82157 -27.2111
RightLeg  17.9175 -3.68811 -1.94616
RightFoot  -7.22002 -0.0614902 0.659348
RightToes  -6.98493e-010 0 -3.6325e-017
Spine  16.5177 -1.09823 3.49801
Spine1  9.66362 0.612898 -5.20008
HEad  -11.3654 -18.0286 0.479609
LeftShoulder1  0.34096 2.29274 -21.7651
LeftArm  -15.4538 3.3085 -36.6207
LeftForeArm  71.2606 -79.0668 -90.0051
LeftHand  -0.0551225 0.84242 1.33515
RightShoulder  -0.165525 -4.03347 23.4379
RightArm  -14.1584 -7.83696 41.3984
RightForeArm  103.496 74.9866 131.628
RightHand  0.0798914 2.8578 0.899528
LeftUpLeg  -13.6395 12.0292 7.38623
LeftLeg  23.3444 -2.91201 -1.03864
LeftFoot  -3.44431 0.599796 -8.37808
LeftToes  7.91257e-010 -1.64976e-010 -3.02228e-011
589
root  38.0886 37.7765 31.7363 177.806 -10.9543 176.424
RightUpLeg  -5.29082 6.41659 -24.083
RightLeg  21.0274 -0.952187 -0.575383
RightFoot  -9.50996 -0.117276 3.16836
RightToes  -6.98493e-010 0 -3.6325e-017
Spine  15.4134 -0.522292 4.05837
Spine1  9.53861 1.47667 -6.43734
HEad  -11.3975 -17.1365 0.393273
LeftShoulder1  0.38318 2.13813 -21.6118
LeftArm  -14.7421 1.98178 -37.0216
LeftForeArm  66.7558 -79.0179 -86.0314
LeftHand  -0.10178 1.53497 2.8415
RightShoulder  -0.137595 -3.93697 23.6113
RightArm  -13.6997 -6.97115 41.1963
RightForeArm  95.3438 76.2897 124.451
RightHand  -0.0480505 2.9086 -0.860107
LeftUpLeg  -14.3792 12.5352 7.61655
LeftLeg  23.3839 -1.66009 -0.449966
LeftFoot  -3.91955 0.499465 -7.33807
LeftToes  7.91257e-010 -1.64976e-010 -3.02228e-011
590
root  37.4196 38.081 31.7164 178.079 -9.8532 177.153
RightUpLeg  -7.50585 4.10425 -20.7162
RightLeg  25.4482 -0.285398 -0.396631
RightFoot  -10.6463 -0.0962789 3.66956
RightToes  -6.98493e-010 0 -3.6325e-017
Spine  15.2697 -0.237437 3.06067
Spine1  9.21 1.43334 -5.766
HEad  -11.2407 -15.4937 0.823873
LeftShoulder1  0.421506 2.04825 -22.6212
LeftArm  -14.571 1.1929 -36.0476
LeftForeArm  63.5136 -78.951 -83.1712
LeftHand  -0.0912872 1.53244 2.54117
RightShoulder  -0.0998932 -3.8133 23.399
RightArm  -12.497 -4.87193 41.6004
RightForeArm  84.2347 77.697 112.931
RightHand  -0.200138 3.29042 -2.93452
LeftUpLeg  -13.5795 12.9547 7.32187
LeftLeg  21.948 -0.853443 -0.0356706
LeftFoot  -3.79059 0.461643 -6.65252
LeftToes  7.91257e-010 -1.64976e-010 -3.02228e-011
591
root  36.8427 38.41 31.671 178.263 -8.64127 177.811
RightUpLeg  -9.64894 1.45457 -16.7219
RightLeg  29.5461 -1.63832 -1.22915
RightFoot  -11.518 -0.0745607 2.44468
RightToes  -6.98493e-010 0 -3.6325e-017
Spine  14.9797 -0.112623 1.94119
Spine1  8.95978 1.23986 -5.05574
HEad  -10.7308 -13.735 1.08482
LeftShoulder1  0.314461 2.41541 -22.5398
LeftArm  -14.4406 1.06906 -36.2757
LeftForeArm  63.0764 -78.9467 -82.3439
LeftHand  -0.0960859 1.32565 2.57969
RightShoulder  -0.0845139 -3.75886 23.3668
RightArm  -11.5645 -2.54227 42.0855
RightForeArm  69.2334 78.528 98.2831
RightHand  -0.175985 3.29436 -2.59262
LeftUpLeg  -12.268 13.7133 7.15663
LeftLeg  19.7485 -0.14828 0.235621
LeftFoot  -3.2366 0.435261 -5.86734
LeftToes  7.91257e-010 -1.64976e-010 -3.02228e-011
592
root  36.2849 38.7044 31.6058 178.656 -8.27722 178.411
RightUpLeg  -11.1826 -1.93604 -12.584
RightLeg  31.3789 -1.73668 -1.38017
RightFoot  -12.244 -0.067696 1.84864
RightToes  -6.98493e-010 0 -3.6325e-017
Spine  14.583 -0.331141 1.59003
Spine1  8.55178 0.929432 -4.8142
HEad  -10.3929 -12.8004 1.88695
LeftShoulder1  0.364982 2.22991 -22.2758
LeftArm  -14.3113 0.779009 -36.3542
LeftForeArm  61.8436 -78.9133 -81.0698
LeftHand  -0.10737 1.33933 2.91689
RightShoulder  -0.224208 -4.21407 24.148
RightArm  -10.7399 -0.722721 41.7572
RightForeArm  58.66 78.6449 87.4461
RightHand  -0.141164 3.62849 -2.04481
LeftUpLeg  -11.348 13.2788 6.92841
LeftLeg  17.5835 0.877051 0.329596
LeftFoot  -2.687 0.410862 -5.21518
LeftToes  7.91257e-010 -1.64976e-010 -3.02228e-011
593
root  35.8028 38.95 31.5251 179.098 -7.06877 178.853
RightUpLeg  -12.495 -3.95196 -8.30941
RightLeg  30.4074 -1.2013 -0.992444
RightFoot  -12.5698 -0.0601784 2.35584
RightToes  -6.98493e-010 0 -3.6325e-017
Spine  13.868 -0.157293 1.24098
Spine1  8.54273 1.01126 -4.36908
HEad  -10.3927 -11.4637 2.17519
LeftShoulder1  0.349884 2.28716 -22.3951
LeftArm  -14.1643 0.256435 -36.5879
LeftForeArm  61.0869 -78.8885 -80.4128
LeftHand  -0.132684 1.48529 3.77192
RightShoulder  -0.147363 -3.96699 23.7888
RightArm  -10.6797 -0.0330278 41.8848
RightForeArm  50.5759 78.4478 80.7271
RightHand  -0.22645 4.47324 -2.95192
LeftUpLeg  -10.2853 13.6705 6.91473
LeftLeg  15.5439 1.83625 0.0869931
LeftFoot  -2.22597 0.376573 -4.55609
LeftToes  7.91257e-010 -1.64976e-010 -3.02228e-011
594
root  35.3668 39.1389 31.4495 179.498 -5.97234 179.066
RightUpLeg  -13.0932 -4.4996 -4.27678
RightLeg  26.8522 -1.78477 -1.19826
RightFoot  -12.9657 -0.0511532 2.52848
RightToes  -6.98493e-010 0 -3.6325e-017
Spine  13.9194 -0.0830149 0.803915
Spine1  7.76293 0.992101 -4.10295
HEad  -10.4285 -10.2831 2.3077
LeftShoulder1  0.32019 2.39592 -22.5408
LeftArm  -14.1258 0.0671408 -37.0389
LeftForeArm  61.5761 -78.909 -80.4711
LeftHand  -0.116793 1.37742 3.22116
RightShoulder  -0.176184 -4.06133 23.8498
RightArm  -10.7196 1.10116 41.5103
RightForeArm  44.4905 78.1778 74.2925
RightHand  -0.136756 4.17368 -1.93644
LeftUpLeg  -9.35977 13.1403 6.73361
LeftLeg  13.7902 3.53224 -0.0656327
LeftFoot  -1.86435 0.339291 -3.95813
LeftToes  7.91257e-010 -1.64976e-010 -3.02228e-011
